<svg xmlns="http://www.w3.org/2000/svg" viewBox="0 0 70 70" width="100%" height="100%" fill="none">
  <!-- ANTRABUMI Official Emblem Icon -->
  <path d="M35 5 L62 58 C63 60 61 63 58 63 L48 63 C46 63 44 62 43 60 L35 44 L27 60 C26 62 24 63 22 63 L12 63 C9 63 7 60 8 58 L35 5 Z" fill="#0D5C4D" />
  <path d="M16 52 C26 42 42 41 54 48 C46 54 32 55 20 60 Z" fill="#E5A823" />
  <path d="M22 47 C32 38 46 38 58 45 C48 49 36 50 25 54 Z" fill="#D96B27" />
  <path d="M35 22 L44 40 C38 37 32 37 26 40 L35 22 Z" fill="#FFFFFF" />
</svg>
